<svg width="973" height="1025" viewBox="0 0 973 1025" fill="none" xmlns="http://www.w3.org/2000/svg">
<path d="M703.572 275.345C685.923 256.89 661.013 246.301 635.498 246.301C630.253 246.301 624.808 246.704 619.463 247.612C454.774 275.749 342.427 357.539 277.077 421.175C252.873 444.774 239.561 476.238 239.46 509.822C239.46 540.681 250.957 570.332 271.833 593.326L405.661 740.868C429.057 766.688 462.438 781.51 497.234 781.51C503.585 781.51 510.142 781.008 516.597 779.999C558.146 773.444 593.241 746.618 610.588 708.294C647.197 627.311 697.32 501.049 727.572 359.353C728.987 352.799 729.691 346.042 729.691 339.283C729.691 315.485 720.414 292.691 703.672 275.245L703.572 275.345ZM429.864 718.984L295.935 571.441C280.505 554.497 272.135 532.716 272.135 510.024C272.135 485.316 282.02 462.12 299.868 444.774C361.79 384.363 468.49 306.709 624.908 279.985C628.439 279.38 632.07 279.078 635.498 279.078C652.24 279.078 668.477 286.034 680.073 298.036C690.966 309.433 697.015 324.156 697.015 339.588C697.015 343.923 696.513 348.361 695.603 352.697C665.955 491.366 616.84 615.412 580.837 694.983C568.029 723.322 542.211 743.087 511.554 747.827C481.096 752.567 450.337 741.575 429.967 718.984H429.864Z" fill="url(#paint0_linear_2588_1349)"/>
<path d="M806.427 197.677C768.104 150.278 711.224 123.149 650.512 123.149C639.117 123.149 627.621 124.158 616.224 126.074C409.885 161.372 268.998 263.936 187.107 343.809C141.523 388.285 116.412 447.583 116.311 510.717C116.311 568.806 137.892 624.576 177.224 667.942L324.97 830.815C369.847 880.23 431.062 907.359 497.525 907.359C589.297 907.359 673.003 853.303 710.822 769.799C753.279 676.008 811.168 529.575 846.363 364.886C849.289 351.071 850.8 337.053 850.8 323.134C850.8 277.652 835.168 233.076 806.427 197.677ZM497.422 871.962C441.147 871.962 389.111 848.865 351.189 807.014L203.344 644.141C169.963 607.329 151.608 559.93 151.709 510.717C151.709 457.163 173.089 406.841 211.816 369.122C290.074 292.779 424.81 194.753 622.173 160.968C631.451 159.355 641.034 158.548 650.412 158.548C700.435 158.548 747.229 180.936 778.793 219.965C802.392 249.212 815.403 285.82 815.303 323.134C815.303 334.531 814.091 346.128 811.672 357.425C777.079 519.288 720.1 663 678.448 755.074C646.379 826.074 575.279 871.859 497.422 871.859V871.962Z" fill="url(#paint1_linear_2588_1349)"/>
<path d="M903.515 115.776C844.014 42.1553 755.668 0 661.172 0C643.825 0 625.977 1.51275 608.125 4.4374C366.387 45.8867 201.095 166.201 104.884 259.89C37.4156 325.845 0.101087 413.687 0.000237131 507.376C-0.100613 593.401 31.9698 676.2 90.2611 740.441L245.066 910.977C311.527 984.196 402.392 1024.54 500.921 1024.54C636.869 1024.54 760.913 944.56 816.885 820.716C863.477 717.75 927.013 556.994 965.739 376.07C970.277 354.588 972.599 332.804 972.599 311.122C972.599 240.426 948.19 171.042 903.515 115.776ZM500.921 987.422C412.982 987.422 331.896 951.419 272.497 886.169L117.692 715.531C65.6537 658.146 37.0123 584.325 37.113 507.376C37.113 423.872 70.4943 345.41 130.904 286.514C223.181 196.456 381.919 80.7808 614.48 41.0459C629.91 38.4239 645.642 37.0118 661.172 37.0118C744.373 37.0118 822.23 74.2255 874.572 139.072C913.902 187.581 935.584 248.696 935.484 311.022C935.484 329.98 933.468 349.244 929.332 368.204C891.211 546.506 828.784 704.336 783.099 805.286C733.079 915.919 622.346 987.322 500.921 987.322V987.422Z" fill="url(#paint2_linear_2588_1349)"/>
<defs>
<linearGradient id="paint0_linear_2588_1349" x1="735.766" y1="260.776" x2="265.686" y2="700.389" gradientUnits="userSpaceOnUse">
<stop stop-color="#15BF84"/>
<stop offset="1" stop-color="#B850FD"/>
</linearGradient>
<linearGradient id="paint1_linear_2588_1349" x1="859.904" y1="144.359" x2="170.267" y2="803.829" gradientUnits="userSpaceOnUse">
<stop stop-color="#15BF84"/>
<stop offset="1" stop-color="#B850FD"/>
</linearGradient>
<linearGradient id="paint2_linear_2588_1349" x1="984.65" y1="27.7094" x2="83.21" y2="901.413" gradientUnits="userSpaceOnUse">
<stop stop-color="#15BF84"/>
<stop offset="1" stop-color="#B850FD"/>
</linearGradient>
</defs>
</svg>
